STARTFONT 2.1
FONT Nimbus19
SIZE 19 78 78
FONTBOUNDINGBOX 14 16 -2 -4
COMMENT "Generated by fontforge, http://fontforge.sourceforge.net"
COMMENT "This file is distributed under the terms of the GNU General Public License version 2"
STARTPROPERTIES 7
DEFAULT_CHAR 0
POINT_SIZE 360
FONT_DESCENT 4
FONT_ASCENT 15
COPYRIGHT "Copyright (c) 2006 Alexander Levin"
CHARSET_REGISTRY "ISO10646"
CHARSET_ENCODING "1"
ENDPROPERTIES
CHARS 273
STARTCHAR uni0000
ENCODING 0
SWIDTH 600 0
DWIDTH 9 0
BBX 7 11 1 0
BITMAP
AA
00
82
00
82
00
82
00
82
00
AA
ENDCHAR
STARTCHAR space
ENCODING 32
SWIDTH 300 0
DWIDTH 6 0
BBX 1 1 0 0
BITMAP
00
ENDCHAR
STARTCHAR exclam
ENCODING 33
SWIDTH 1000 0
DWIDTH 5 0
BBX 3 12 1 0
BITMAP
E0
E0
E0
E0
E0
E0
E0
E0
00
E0
E0
E0
ENDCHAR
STARTCHAR quotedbl
ENCODING 34
SWIDTH 333 0
DWIDTH 7 0
BBX 5 5 1 7
BITMAP
D8
D8
D8
D8
D8
ENDCHAR
STARTCHAR numbersign
ENCODING 35
SWIDTH 500 0
DWIDTH 10 0
BBX 10 11 1 1
BITMAP
1980
1980
1980
7FC0
3300
3300
3300
FF80
6600
6600
6600
ENDCHAR
STARTCHAR dollar
ENCODING 36
SWIDTH 1000 0
DWIDTH 9 0
BBX 7 14 1 -1
BITMAP
10
7C
D6
D2
D0
F0
78
3C
1E
16
96
D6
7C
10
ENDCHAR
STARTCHAR percent
ENCODING 37
SWIDTH 714 0
DWIDTH 15 0
BBX 13 12 1 0
BITMAP
7BC0
CCC0
CD80
CD80
7B00
0300
0600
06F0
0D98
0D98
1998
18F0
ENDCHAR
STARTCHAR ampersand
ENCODING 38
SWIDTH 550 0
DWIDTH 11 0
BBX 9 12 1 0
BITMAP
7E00
E700
E700
E700
E700
7000
E080
E780
E700
E700
E700
7E00
ENDCHAR
STARTCHAR quotesingle
ENCODING 39
SWIDTH 190 0
DWIDTH 4 0
BBX 2 5 1 7
BITMAP
C0
C0
C0
C0
C0
ENDCHAR
STARTCHAR parenleft
ENCODING 40
SWIDTH 1000 0
DWIDTH 5 0
BBX 4 14 1 -1
BITMAP
30
60
E0
E0
E0
E0
E0
E0
E0
E0
E0
E0
60
30
ENDCHAR
STARTCHAR parenright
ENCODING 41
SWIDTH 1000 0
DWIDTH 5 0
BBX 4 14 0 -1
BITMAP
C0
60
70
70
70
70
70
70
70
70
70
70
60
C0
ENDCHAR
STARTCHAR asterisk
ENCODING 42
SWIDTH 500 0
DWIDTH 10 0
BBX 8 7 1 5
BITMAP
18
DB
7E
3C
7E
DB
18
ENDCHAR
STARTCHAR plus
ENCODING 43
SWIDTH 450 0
DWIDTH 9 0
BBX 7 7 1 1
BITMAP
10
10
10
FE
10
10
10
ENDCHAR
STARTCHAR comma
ENCODING 44
SWIDTH 1000 0
DWIDTH 5 0
BBX 3 5 1 -2
BITMAP
E0
E0
E0
60
C0
ENDCHAR
STARTCHAR hyphen
ENCODING 45
SWIDTH 1000 0
DWIDTH 9 0
BBX 7 1 1 4
BITMAP
FE
ENDCHAR
STARTCHAR period
ENCODING 46
SWIDTH 1000 0
DWIDTH 5 0
BBX 3 3 1 0
BITMAP
E0
E0
E0
ENDCHAR
STARTCHAR slash
ENCODING 47
SWIDTH 428 0
DWIDTH 9 0
BBX 7 12 1 0
BITMAP
06
06
0C
0C
18
18
30
30
60
60
C0
C0
ENDCHAR
STARTCHAR zero
ENCODING 48
SWIDTH 1000 0
DWIDTH 10 0
BBX 8 12 1 0
BITMAP
7E
E7
E7
E7
EF
EF
F7
F7
F7
E7
E7
7E
ENDCHAR
STARTCHAR one
ENCODING 49
SWIDTH 500 0
DWIDTH 10 0
BBX 5 12 2 0
BITMAP
18
38
78
F8
38
38
38
38
38
38
38
38
ENDCHAR
STARTCHAR two
ENCODING 50
SWIDTH 1000 0
DWIDTH 10 0
BBX 8 12 1 0
BITMAP
7E
C7
87
07
07
0E
1C
38
70
E0
E0
FF
ENDCHAR
STARTCHAR three
ENCODING 51
SWIDTH 1000 0
DWIDTH 10 0
BBX 8 12 1 0
BITMAP
FF
07
07
0E
1C
3E
07
07
07
87
C7
7E
ENDCHAR
STARTCHAR four
ENCODING 52
SWIDTH 1000 0
DWIDTH 10 0
BBX 9 12 1 0
BITMAP
0300
0700
0F00
1700
2700
4700
8700
FF80
0700
0700
0700
0700
ENDCHAR
STARTCHAR five
ENCODING 53
SWIDTH 1000 0
DWIDTH 10 0
BBX 8 12 1 0
BITMAP
FF
E0
E0
E0
FE
07
07
07
07
87
C7
7E
ENDCHAR
STARTCHAR six
ENCODING 54
SWIDTH 1000 0
DWIDTH 10 0
BBX 8 12 1 0
BITMAP
3E
70
E0
E0
FE
E7
E7
E7
E7
E7
E7
7E
ENDCHAR
STARTCHAR seven
ENCODING 55
SWIDTH 500 0
DWIDTH 10 0
BBX 8 12 1 0
BITMAP
FF
07
07
0E
0E
1C
1C
38
38
38
38
38
ENDCHAR
STARTCHAR eight
ENCODING 56
SWIDTH 1000 0
DWIDTH 10 0
BBX 8 12 1 0
BITMAP
7E
E7
E7
E7
E7
7E
E7
E7
E7
E7
E7
7E
ENDCHAR
STARTCHAR nine
ENCODING 57
SWIDTH 1000 0
DWIDTH 10 0
BBX 8 12 1 0
BITMAP
7E
E7
E7
E7
E7
E7
E7
7F
07
07
0E
7C
ENDCHAR
STARTCHAR colon
ENCODING 58
SWIDTH 1000 0
DWIDTH 5 0
BBX 3 9 1 0
BITMAP
E0
E0
E0
00
00
00
E0
E0
E0
ENDCHAR
STARTCHAR semicolon
ENCODING 59
SWIDTH 1000 0
DWIDTH 5 0
BBX 3 11 1 -2
BITMAP
E0
E0
E0
00
00
00
E0
E0
E0
60
C0
ENDCHAR
STARTCHAR less
ENCODING 60
SWIDTH 400 0
DWIDTH 8 0
BBX 6 9 1 1
BITMAP
0C
18
30
60
C0
60
30
18
0C
ENDCHAR
STARTCHAR equal
ENCODING 61
SWIDTH 1000 0
DWIDTH 9 0
BBX 7 4 1 2
BITMAP
FE
00
00
FE
ENDCHAR
STARTCHAR greater
ENCODING 62
SWIDTH 1000 0
DWIDTH 8 0
BBX 6 9 1 1
BITMAP
C0
60
30
18
0C
18
30
60
C0
ENDCHAR
STARTCHAR question
ENCODING 63
SWIDTH 1000 0
DWIDTH 11 0
BBX 9 12 1 0
BITMAP
7F00
C380
8380
0380
0700
0E00
1C00
1C00
0000
1C00
1C00
1C00
ENDCHAR
STARTCHAR at
ENCODING 64
SWIDTH 700 0
DWIDTH 14 0
BBX 12 12 1 0
BITMAP
1F80
6060
4020
8F10
9110
9110
9110
9110
8FF0
4000
6000
1F80
ENDCHAR
STARTCHAR A
ENCODING 65
SWIDTH 500 0
DWIDTH 10 0
BBX 8 12 1 0
BITMAP
7E
E7
E7
E7
E7
FF
E7
E7
E7
E7
E7
E7
ENDCHAR
STARTCHAR B
ENCODING 66
SWIDTH 500 0
DWIDTH 10 0
BBX 8 12 1 0
BITMAP
FE
E7
E7
E7
E6
FC
E6
E7
E7
E7
E7
FE
ENDCHAR
STARTCHAR C
ENCODING 67
SWIDTH 500 0
DWIDTH 10 0
BBX 8 12 1 0
BITMAP
7E
E3
E1
E0
E0
E0
E0
E0
E0
E1
E3
7E
ENDCHAR
STARTCHAR D
ENCODING 68
SWIDTH 500 0
DWIDTH 10 0
BBX 8 12 1 0
BITMAP
FE
E7
E7
E7
E7
E7
E7
E7
E7
E7
E7
FE
ENDCHAR
STARTCHAR E
ENCODING 69
SWIDTH 450 0
DWIDTH 9 0
BBX 7 12 1 0
BITMAP
FE
E0
E0
E0
E0
FC
E0
E0
E0
E0
E0
FE
ENDCHAR
STARTCHAR F
ENCODING 70
SWIDTH 1000 0
DWIDTH 9 0
BBX 7 12 1 0
BITMAP
FE
E0
E0
E0
E0
FC
E0
E0
E0
E0
E0
E0
ENDCHAR
STARTCHAR G
ENCODING 71
SWIDTH 1000 0
DWIDTH 10 0
BBX 8 12 1 0
BITMAP
7E
E3
E1
E0
E0
EF
E7
E7
E7
E7
E7
7E
ENDCHAR
STARTCHAR H
ENCODING 72
SWIDTH 1000 0
DWIDTH 10 0
BBX 8 12 1 0
BITMAP
E7
E7
E7
E7
E7
FF
E7
E7
E7
E7
E7
E7
ENDCHAR
STARTCHAR I
ENCODING 73
SWIDTH 250 0
DWIDTH 5 0
BBX 3 12 1 0
BITMAP
E0
E0
E0
E0
E0
E0
E0
E0
E0
E0
E0
E0
ENDCHAR
STARTCHAR J
ENCODING 74
SWIDTH 1000 0
DWIDTH 10 0
BBX 8 12 1 0
BITMAP
07
07
07
07
07
07
07
07
E7
E7
E7
7E
ENDCHAR
STARTCHAR K
ENCODING 75
SWIDTH 550 0
DWIDTH 11 0
BBX 9 12 1 0
BITMAP
E380
E700
EE00
FC00
F800
F000
F800
FC00
EE00
E700
E380
E380
ENDCHAR
STARTCHAR L
ENCODING 76
SWIDTH 450 0
DWIDTH 9 0
BBX 7 12 1 0
BITMAP
E0
E0
E0
E0
E0
E0
E0
E0
E0
E0
E0
FE
ENDCHAR
STARTCHAR M
ENCODING 77
SWIDTH 750 0
DWIDTH 15 0
BBX 13 12 1 0
BITMAP
8018
C038
E078
F0F8
F9F8
BFB8
9F38
8E38
8438
8038
8038
8038
ENDCHAR
STARTCHAR N
ENCODING 78
SWIDTH 550 0
DWIDTH 11 0
BBX 9 12 1 0
BITMAP
8080
C080
E080
F080
F880
BC80
9E80
8F80
8780
8380
8180
8080
ENDCHAR
STARTCHAR O
ENCODING 79
SWIDTH 1000 0
DWIDTH 10 0
BBX 8 12 1 0
BITMAP
7E
E7
E7
E7
E7
E7
E7
E7
E7
E7
E7
7E
ENDCHAR
STARTCHAR P
ENCODING 80
SWIDTH 450 0
DWIDTH 10 0
BBX 8 12 1 0
BITMAP
FE
E7
E7
E7
E7
FE
E0
E0
E0
E0
E0
E0
ENDCHAR
STARTCHAR Q
ENCODING 81
SWIDTH 1000 0
DWIDTH 10 0
BBX 8 13 1 -1
BITMAP
7E
E7
E7
E7
E7
E7
E7
E7
E7
E7
E7
7E
07
ENDCHAR
STARTCHAR R
ENCODING 82
SWIDTH 1000 0
DWIDTH 10 0
BBX 8 12 1 0
BITMAP
FE
E7
E7
E7
E6
FC
E6
E7
E7
E7
E7
E7
ENDCHAR
STARTCHAR S
ENCODING 83
SWIDTH 450 0
DWIDTH 9 0
BBX 7 12 1 0
BITMAP
7C
E6
E2
E0
F0
78
3C
1E
0E
8E
CE
7C
ENDCHAR
STARTCHAR T
ENCODING 84
SWIDTH 1000 0
DWIDTH 9 0
BBX 9 12 0 0
BITMAP
FF80
1C00
1C00
1C00
1C00
1C00
1C00
1C00
1C00
1C00
1C00
1C00
ENDCHAR
STARTCHAR U
ENCODING 85
SWIDTH 1000 0
DWIDTH 10 0
BBX 8 12 1 0
BITMAP
E7
E7
E7
E7
E7
E7
E7
E7
E7
E7
E7
7E
ENDCHAR
STARTCHAR V
ENCODING 86
SWIDTH 500 0
DWIDTH 10 0
BBX 8 12 1 0
BITMAP
E7
E7
E7
E7
E7
E7
E7
E7
E7
E7
E6
FC
ENDCHAR
STARTCHAR W
ENCODING 87
SWIDTH 750 0
DWIDTH 15 0
BBX 13 12 1 0
BITMAP
E738
E738
E738
E738
E738
E738
E738
E738
E738
E738
E730
FFE0
ENDCHAR
STARTCHAR X
ENCODING 88
SWIDTH 1000 0
DWIDTH 10 0
BBX 8 12 1 0
BITMAP
E7
E7
E7
E7
E7
7E
E7
E7
E7
E7
E7
E7
ENDCHAR
STARTCHAR Y
ENCODING 89
SWIDTH 550 0
DWIDTH 11 0
BBX 9 12 1 0
BITMAP
E380
E380
E380
E380
E380
E380
7F00
1C00
1C00
1C00
1C00
1C00
ENDCHAR
STARTCHAR Z
ENCODING 90
SWIDTH 1000 0
DWIDTH 9 0
BBX 7 12 1 0
BITMAP
FE
0E
0E
1C
1C
38
38
70
70
E0
E0
FE
ENDCHAR
STARTCHAR bracketleft
ENCODING 91
SWIDTH 1000 0
DWIDTH 5 0
BBX 4 14 1 -1
BITMAP
F0
E0
E0
E0
E0
E0
E0
E0
E0
E0
E0
E0
E0
F0
ENDCHAR
STARTCHAR backslash
ENCODING 92
SWIDTH 428 0
DWIDTH 9 0
BBX 7 12 1 0
BITMAP
C0
C0
60
60
30
30
18
18
0C
0C
06
06
ENDCHAR
STARTCHAR bracketright
ENCODING 93
SWIDTH 1000 0
DWIDTH 5 0
BBX 4 14 0 -1
BITMAP
F0
70
70
70
70
70
70
70
70
70
70
70
70
F0
ENDCHAR
STARTCHAR asciicircum
ENCODING 94
SWIDTH 450 0
DWIDTH 9 0
BBX 7 4 1 8
BITMAP
10
38
6C
C6
ENDCHAR
STARTCHAR underscore
ENCODING 95
SWIDTH 500 0
DWIDTH 10 0
BBX 10 1 0 -1
BITMAP
FFC0
ENDCHAR
STARTCHAR grave
ENCODING 96
SWIDTH 1000 0
DWIDTH 5 0
BBX 4 2 0 11
BITMAP
E0
70
ENDCHAR
STARTCHAR a
ENCODING 97
SWIDTH 500 0
DWIDTH 10 0
BBX 8 9 1 0
BITMAP
7E
C7
87
07
7F
E7
E7
E7
7F
ENDCHAR
STARTCHAR b
ENCODING 98
SWIDTH 500 0
DWIDTH 10 0
BBX 8 12 1 0
BITMAP
E0
E0
E0
FE
E7
E7
E7
E7
E7
E7
E7
FE
ENDCHAR
STARTCHAR c
ENCODING 99
SWIDTH 500 0
DWIDTH 10 0
BBX 8 9 1 0
BITMAP
7E
E3
E1
E0
E0
E0
E1
E3
7E
ENDCHAR
STARTCHAR d
ENCODING 100
SWIDTH 1000 0
DWIDTH 10 0
BBX 8 12 1 0
BITMAP
07
07
07
7F
E7
E7
E7
E7
E7
E7
E7
7F
ENDCHAR
STARTCHAR e
ENCODING 101
SWIDTH 1000 0
DWIDTH 10 0
BBX 8 9 1 0
BITMAP
7E
E7
E7
E7
FF
E0
E1
E3
7E
ENDCHAR
STARTCHAR f
ENCODING 102
SWIDTH 300 0
DWIDTH 6 0
BBX 6 12 0 0
BITMAP
3C
70
70
F8
70
70
70
70
70
70
70
70
ENDCHAR
STARTCHAR g
ENCODING 103
SWIDTH 1000 0
DWIDTH 10 0
BBX 8 13 1 -4
BITMAP
7F
E7
E7
E7
E7
E7
E7
E7
7F
07
87
C7
7E
ENDCHAR
STARTCHAR h
ENCODING 104
SWIDTH 1000 0
DWIDTH 10 0
BBX 8 12 1 0
BITMAP
E0
E0
E0
FE
E7
E7
E7
E7
E7
E7
E7
E7
ENDCHAR
STARTCHAR i
ENCODING 105
SWIDTH 1000 0
DWIDTH 5 0
BBX 3 12 1 0
BITMAP
E0
00
00
E0
E0
E0
E0
E0
E0
E0
E0
E0
ENDCHAR
STARTCHAR j
ENCODING 106
SWIDTH 1000 0
DWIDTH 5 0
BBX 6 14 -2 -2
BITMAP
1C
00
00
1C
1C
1C
1C
1C
1C
1C
1C
1C
9C
78
ENDCHAR
STARTCHAR k
ENCODING 107
SWIDTH 550 0
DWIDTH 11 0
BBX 9 12 1 0
BITMAP
E000
E000
E000
E700
EE00
FC00
F800
F800
FC00
EE00
E700
E380
ENDCHAR
STARTCHAR l
ENCODING 108
SWIDTH 250 0
DWIDTH 5 0
BBX 3 12 1 0
BITMAP
E0
E0
E0
E0
E0
E0
E0
E0
E0
E0
E0
E0
ENDCHAR
STARTCHAR m
ENCODING 109
SWIDTH 750 0
DWIDTH 15 0
BBX 13 9 1 0
BITMAP
FFF0
E738
E738
E738
E738
E738
E738
E738
E738
ENDCHAR
STARTCHAR n
ENCODING 110
SWIDTH 1000 0
DWIDTH 10 0
BBX 8 9 1 0
BITMAP
FE
E7
E7
E7
E7
E7
E7
E7
E7
ENDCHAR
STARTCHAR o
ENCODING 111
SWIDTH 1000 0
DWIDTH 10 0
BBX 8 9 1 0
BITMAP
7E
E7
E7
E7
E7
E7
E7
E7
7E
ENDCHAR
STARTCHAR p
ENCODING 112
SWIDTH 1000 0
DWIDTH 10 0
BBX 8 12 1 -3
BITMAP
FE
E7
E7
E7
E7
E7
E7
E7
FE
E0
E0
E0
ENDCHAR
STARTCHAR q
ENCODING 113
SWIDTH 1000 0
DWIDTH 10 0
BBX 8 12 1 -3
BITMAP
7F
E7
E7
E7
E7
E7
E7
E7
7F
07
07
07
ENDCHAR
STARTCHAR r
ENCODING 114
SWIDTH 380 0
DWIDTH 8 0
BBX 7 9 1 0
BITMAP
EE
F0
E0
E0
E0
E0
E0
E0
E0
ENDCHAR
STARTCHAR s
ENCODING 115
SWIDTH 450 0
DWIDTH 9 0
BBX 7 9 1 0
BITMAP
7C
E6
E2
F8
7C
3E
8E
CE
7C
ENDCHAR
STARTCHAR t
ENCODING 116
SWIDTH 1000 0
DWIDTH 6 0
BBX 5 12 0 0
BITMAP
70
70
70
F8
70
70
70
70
70
70
70
38
ENDCHAR
STARTCHAR u
ENCODING 117
SWIDTH 1000 0
DWIDTH 10 0
BBX 8 9 1 0
BITMAP
E7
E7
E7
E7
E7
E7
E7
E7
7F
ENDCHAR
STARTCHAR v
ENCODING 118
SWIDTH 1000 0
DWIDTH 10 0
BBX 8 9 1 0
BITMAP
E7
E7
E7
E7
E7
E7
E7
E6
FC
ENDCHAR
STARTCHAR w
ENCODING 119
SWIDTH 750 0
DWIDTH 15 0
BBX 13 9 1 0
BITMAP
E738
E738
E738
E738
E738
E738
E738
E730
FFE0
ENDCHAR
STARTCHAR x
ENCODING 120
SWIDTH 1000 0
DWIDTH 10 0
BBX 8 9 1 0
BITMAP
E7
E7
E7
66
3C
66
E7
E7
E7
ENDCHAR
STARTCHAR y
ENCODING 121
SWIDTH 1000 0
DWIDTH 10 0
BBX 8 13 1 -4
BITMAP
E7
E7
E7
E7
E7
E7
E7
E7
7F
07
87
C7
7E
ENDCHAR
STARTCHAR z
ENCODING 122
SWIDTH 450 0
DWIDTH 9 0
BBX 7 9 1 0
BITMAP
FE
0E
0E
1C
38
70
E0
E0
FE
ENDCHAR
STARTCHAR braceleft
ENCODING 123
SWIDTH 238 0
DWIDTH 5 0
BBX 4 14 1 -1
BITMAP
30
60
60
60
60
60
C0
C0
60
60
60
60
60
30
ENDCHAR
STARTCHAR bar
ENCODING 124
SWIDTH 190 0
DWIDTH 4 0
BBX 2 14 1 -1
BITMAP
C0
C0
C0
C0
C0
C0
C0
C0
C0
C0
C0
C0
C0
C0
ENDCHAR
STARTCHAR braceright
ENCODING 125
SWIDTH 1000 0
DWIDTH 5 0
BBX 4 14 0 -1
BITMAP
C0
60
60
60
60
60
30
30
60
60
60
60
60
C0
ENDCHAR
STARTCHAR asciitilde
ENCODING 126
SWIDTH 1000 0
DWIDTH 10 0
BBX 8 3 1 6
BITMAP
73
DB
CE
ENDCHAR
STARTCHAR exclamdown
ENCODING 161
SWIDTH 1000 0
DWIDTH 5 0
BBX 3 12 1 0
BITMAP
E0
E0
E0
00
E0
E0
E0
E0
E0
E0
E0
E0
ENDCHAR
STARTCHAR cent
ENCODING 162
SWIDTH 1000 0
DWIDTH 10 0
BBX 8 13 1 -2
BITMAP
08
08
7E
EB
E9
E8
E8
E8
E9
EB
7E
08
08
ENDCHAR
STARTCHAR brokenbar
ENCODING 166
SWIDTH 1000 0
DWIDTH 4 0
BBX 2 14 1 -1
BITMAP
C0
C0
C0
C0
C0
C0
00
00
C0
C0
C0
C0
C0
C0
ENDCHAR
STARTCHAR guillemotleft
ENCODING 171
SWIDTH 428 0
DWIDTH 9 0
BBX 7 7 1 0
BITMAP
12
24
48
90
48
24
12
ENDCHAR
STARTCHAR uni00AD
ENCODING 173
SWIDTH 1000 0
DWIDTH 9 0
BBX 7 1 1 4
BITMAP
FE
ENDCHAR
STARTCHAR degree
ENCODING 176
SWIDTH 1000 0
DWIDTH 10 0
BBX 8 12 1 0
BITMAP
7E
E7
E7
E7
E7
7E
00
00
00
00
00
00
ENDCHAR
STARTCHAR acute
ENCODING 180
SWIDTH 1000 0
DWIDTH 5 0
BBX 4 2 1 11
BITMAP
70
E0
ENDCHAR
STARTCHAR guillemotright
ENCODING 187
SWIDTH 1000 0
DWIDTH 9 0
BBX 7 7 1 0
BITMAP
90
48
24
12
24
48
90
ENDCHAR
STARTCHAR questiondown
ENCODING 191
SWIDTH 523 0
DWIDTH 11 0
BBX 9 12 1 0
BITMAP
1C00
1C00
1C00
0000
1C00
1C00
3800
7000
E000
E080
E180
7F00
ENDCHAR
STARTCHAR Agrave
ENCODING 192
SWIDTH 1000 0
DWIDTH 10 0
BBX 8 15 1 0
BITMAP
38
1C
00
7E
E7
E7
E7
E7
FF
E7
E7
E7
E7
E7
E7
ENDCHAR
STARTCHAR Aacute
ENCODING 193
SWIDTH 1000 0
DWIDTH 10 0
BBX 8 15 1 0
BITMAP
1C
38
00
7E
E7
E7
E7
E7
FF
E7
E7
E7
E7
E7
E7
ENDCHAR
STARTCHAR Acircumflex
ENCODING 194
SWIDTH 1000 0
DWIDTH 10 0
BBX 8 15 1 0
BITMAP
3C
66
00
7E
E7
E7
E7
E7
FF
E7
E7
E7
E7
E7
E7
ENDCHAR
STARTCHAR Atilde
ENCODING 195
SWIDTH 1000 0
DWIDTH 10 0
BBX 8 15 1 0
BITMAP
76
DC
00
7E
E7
E7
E7
E7
FF
E7
E7
E7
E7
E7
E7
ENDCHAR
STARTCHAR Adieresis
ENCODING 196
SWIDTH 1000 0
DWIDTH 10 0
BBX 8 14 1 0
BITMAP
66
00
7E
E7
E7
E7
E7
FF
E7
E7
E7
E7
E7
E7
ENDCHAR
STARTCHAR Aring
ENCODING 197
SWIDTH 1000 0
DWIDTH 10 0
BBX 8 15 1 0
BITMAP
3C
66
3C
7E
E7
E7
E7
E7
FF
E7
E7
E7
E7
E7
E7
ENDCHAR
STARTCHAR AE
ENCODING 198
SWIDTH 666 0
DWIDTH 14 0
BBX 12 12 1 0
BITMAP
7FF0
E700
E700
E700
E700
FFE0
E700
E700
E700
E700
E700
E7F0
ENDCHAR
STARTCHAR Ccedilla
ENCODING 199
SWIDTH 1000 0
DWIDTH 10 0
BBX 8 15 1 -3
BITMAP
7E
E3
E1
E0
E0
E0
E0
E0
E0
E1
E3
7E
08
18
70
ENDCHAR
STARTCHAR Egrave
ENCODING 200
SWIDTH 1000 0
DWIDTH 9 0
BBX 7 15 1 0
BITMAP
70
38
00
FE
E0
E0
E0
E0
FC
E0
E0
E0
E0
E0
FE
ENDCHAR
STARTCHAR Eacute
ENCODING 201
SWIDTH 1000 0
DWIDTH 9 0
BBX 7 15 1 0
BITMAP
1C
38
00
FE
E0
E0
E0
E0
FC
E0
E0
E0
E0
E0
FE
ENDCHAR
STARTCHAR Ecircumflex
ENCODING 202
SWIDTH 1000 0
DWIDTH 9 0
BBX 7 15 1 0
BITMAP
78
CC
00
FE
E0
E0
E0
E0
FC
E0
E0
E0
E0
E0
FE
ENDCHAR
STARTCHAR Edieresis
ENCODING 203
SWIDTH 1000 0
DWIDTH 9 0
BBX 7 14 1 0
BITMAP
CC
00
FE
E0
E0
E0
E0
FC
E0
E0
E0
E0
E0
FE
ENDCHAR
STARTCHAR Igrave
ENCODING 204
SWIDTH 1000 0
DWIDTH 5 0
BBX 4 15 0 0
BITMAP
E0
70
00
70
70
70
70
70
70
70
70
70
70
70
70
ENDCHAR
STARTCHAR Iacute
ENCODING 205
SWIDTH 1000 0
DWIDTH 5 0
BBX 4 15 1 0
BITMAP
70
E0
00
E0
E0
E0
E0
E0
E0
E0
E0
E0
E0
E0
E0
ENDCHAR
STARTCHAR Icircumflex
ENCODING 206
SWIDTH 1000 0
DWIDTH 5 0
BBX 5 15 0 0
BITMAP
70
D8
00
70
70
70
70
70
70
70
70
70
70
70
70
ENDCHAR
STARTCHAR Idieresis
ENCODING 207
SWIDTH 1000 0
DWIDTH 5 0
BBX 5 14 0 0
BITMAP
D8
00
70
70
70
70
70
70
70
70
70
70
70
70
ENDCHAR
STARTCHAR Eth
ENCODING 208
SWIDTH 1000 0
DWIDTH 10 0
BBX 9 12 0 0
BITMAP
7F00
7380
7380
7380
7380
FB80
7380
7380
7380
7380
7380
7F00
ENDCHAR
STARTCHAR Ntilde
ENCODING 209
SWIDTH 1000 0
DWIDTH 11 0
BBX 9 15 1 0
BITMAP
3B00
6E00
0000
8080
C080
E080
F080
F880
BC80
9E80
8F80
8780
8380
8180
8080
ENDCHAR
STARTCHAR Ograve
ENCODING 210
SWIDTH 1000 0
DWIDTH 10 0
BBX 8 15 1 0
BITMAP
38
1C
00
7E
E7
E7
E7
E7
E7
E7
E7
E7
E7
E7
7E
ENDCHAR
STARTCHAR Oacute
ENCODING 211
SWIDTH 1000 0
DWIDTH 10 0
BBX 8 15 1 0
BITMAP
1C
38
00
7E
E7
E7
E7
E7
E7
E7
E7
E7
E7
E7
7E
ENDCHAR
STARTCHAR Ocircumflex
ENCODING 212
SWIDTH 1000 0
DWIDTH 10 0
BBX 8 15 1 0
BITMAP
3C
66
00
7E
E7
E7
E7
E7
E7
E7
E7
E7
E7
E7
7E
ENDCHAR
STARTCHAR Otilde
ENCODING 213
SWIDTH 1000 0
DWIDTH 10 0
BBX 8 15 1 0
BITMAP
76
DC
00
7E
E7
E7
E7
E7
E7
E7
E7
E7
E7
E7
7E
ENDCHAR
STARTCHAR Odieresis
ENCODING 214
SWIDTH 1000 0
DWIDTH 10 0
BBX 8 14 1 0
BITMAP
66
00
7E
E7
E7
E7
E7
E7
E7
E7
E7
E7
E7
7E
ENDCHAR
STARTCHAR multiply
ENCODING 215
SWIDTH 1000 0
DWIDTH 9 0
BBX 7 7 1 1
BITMAP
82
44
28
10
28
44
82
ENDCHAR
STARTCHAR Oslash
ENCODING 216
SWIDTH 1000 0
DWIDTH 10 0
BBX 8 16 1 -2
BITMAP
01
02
7E
E7
E7
EF
EF
EF
F7
F7
F7
E7
E7
7E
40
80
ENDCHAR
STARTCHAR Ugrave
ENCODING 217
SWIDTH 1000 0
DWIDTH 10 0
BBX 8 15 1 0
BITMAP
38
1C
00
E7
E7
E7
E7
E7
E7
E7
E7
E7
E7
E7
7E
ENDCHAR
STARTCHAR Uacute
ENCODING 218
SWIDTH 1000 0
DWIDTH 10 0
BBX 8 15 1 0
BITMAP
1C
38
00
E7
E7
E7
E7
E7
E7
E7
E7
E7
E7
E7
7E
ENDCHAR
STARTCHAR Ucircumflex
ENCODING 219
SWIDTH 1000 0
DWIDTH 10 0
BBX 8 15 1 0
BITMAP
3C
66
00
E7
E7
E7
E7
E7
E7
E7
E7
E7
E7
E7
7E
ENDCHAR
STARTCHAR Udieresis
ENCODING 220
SWIDTH 1000 0
DWIDTH 10 0
BBX 8 14 1 0
BITMAP
66
00
E7
E7
E7
E7
E7
E7
E7
E7
E7
E7
E7
7E
ENDCHAR
STARTCHAR germandbls
ENCODING 223
SWIDTH 1000 0
DWIDTH 10 0
BBX 8 15 1 -3
BITMAP
7E
E7
E7
E7
E6
FC
E6
E7
E7
E7
E7
FE
E0
E0
E0
ENDCHAR
STARTCHAR agrave
ENCODING 224
SWIDTH 1000 0
DWIDTH 10 0
BBX 8 12 1 0
BITMAP
38
1C
00
7E
C7
87
07
7F
E7
E7
E7
7F
ENDCHAR
STARTCHAR aacute
ENCODING 225
SWIDTH 1000 0
DWIDTH 10 0
BBX 8 12 1 0
BITMAP
1C
38
00
7E
C7
87
07
7F
E7
E7
E7
7F
ENDCHAR
STARTCHAR acircumflex
ENCODING 226
SWIDTH 1000 0
DWIDTH 10 0
BBX 8 12 1 0
BITMAP
1C
36
00
7E
C7
87
07
7F
E7
E7
E7
7F
ENDCHAR
STARTCHAR atilde
ENCODING 227
SWIDTH 1000 0
DWIDTH 10 0
BBX 8 12 1 0
BITMAP
3B
6E
00
7E
C7
87
07
7F
E7
E7
E7
7F
ENDCHAR
STARTCHAR adieresis
ENCODING 228
SWIDTH 1000 0
DWIDTH 10 0
BBX 8 12 1 0
BITMAP
66
00
00
7E
C7
87
07
7F
E7
E7
E7
7F
ENDCHAR
STARTCHAR aring
ENCODING 229
SWIDTH 1000 0
DWIDTH 10 0
BBX 8 12 1 0
BITMAP
1C
36
1C
7E
C7
87
07
7F
E7
E7
E7
7F
ENDCHAR
STARTCHAR ae
ENCODING 230
SWIDTH 714 0
DWIDTH 15 0
BBX 13 9 1 0
BITMAP
7DF0
C738
8738
0738
7FF0
E700
E708
E718
7DF0
ENDCHAR
STARTCHAR ccedilla
ENCODING 231
SWIDTH 1000 0
DWIDTH 10 0
BBX 8 12 1 -3
BITMAP
7E
E3
E1
E0
E0
E0
E1
E3
7E
08
18
70
ENDCHAR
STARTCHAR egrave
ENCODING 232
SWIDTH 1000 0
DWIDTH 10 0
BBX 8 12 1 0
BITMAP
38
1C
00
7E
E7
E7
E7
FF
E0
E1
E3
7E
ENDCHAR
STARTCHAR eacute
ENCODING 233
SWIDTH 1000 0
DWIDTH 10 0
BBX 8 12 1 0
BITMAP
1C
38
00
7E
E7
E7
E7
FF
E0
E1
E3
7E
ENDCHAR
STARTCHAR ecircumflex
ENCODING 234
SWIDTH 1000 0
DWIDTH 10 0
BBX 8 12 1 0
BITMAP
38
6C
00
7E
E7
E7
E7
FF
E0
E1
E3
7E
ENDCHAR
STARTCHAR edieresis
ENCODING 235
SWIDTH 1000 0
DWIDTH 10 0
BBX 8 12 1 0
BITMAP
66
00
00
7E
E7
E7
E7
FF
E0
E1
E3
7E
ENDCHAR
STARTCHAR igrave
ENCODING 236
SWIDTH 1000 0
DWIDTH 5 0
BBX 4 12 0 0
BITMAP
E0
70
00
70
70
70
70
70
70
70
70
70
ENDCHAR
STARTCHAR iacute
ENCODING 237
SWIDTH 1000 0
DWIDTH 5 0
BBX 4 12 1 0
BITMAP
70
E0
00
E0
E0
E0
E0
E0
E0
E0
E0
E0
ENDCHAR
STARTCHAR icircumflex
ENCODING 238
SWIDTH 1000 0
DWIDTH 5 0
BBX 5 12 0 0
BITMAP
70
D8
00
70
70
70
70
70
70
70
70
70
ENDCHAR
STARTCHAR idieresis
ENCODING 239
SWIDTH 1000 0
DWIDTH 5 0
BBX 5 12 0 0
BITMAP
D8
00
00
70
70
70
70
70
70
70
70
70
ENDCHAR
STARTCHAR ntilde
ENCODING 241
SWIDTH 1000 0
DWIDTH 10 0
BBX 8 12 1 0
BITMAP
76
DC
00
FE
E7
E7
E7
E7
E7
E7
E7
E7
ENDCHAR
STARTCHAR ograve
ENCODING 242
SWIDTH 1000 0
DWIDTH 10 0
BBX 8 12 1 0
BITMAP
38
1C
00
7E
E7
E7
E7
E7
E7
E7
E7
7E
ENDCHAR
STARTCHAR oacute
ENCODING 243
SWIDTH 1000 0
DWIDTH 10 0
BBX 8 12 1 0
BITMAP
1C
38
00
7E
E7
E7
E7
E7
E7
E7
E7
7E
ENDCHAR
STARTCHAR ocircumflex
ENCODING 244
SWIDTH 1000 0
DWIDTH 10 0
BBX 8 12 1 0
BITMAP
3C
66
00
7E
E7
E7
E7
E7
E7
E7
E7
7E
ENDCHAR
STARTCHAR otilde
ENCODING 245
SWIDTH 1000 0
DWIDTH 10 0
BBX 8 12 1 0
BITMAP
76
DC
00
7E
E7
E7
E7
E7
E7
E7
E7
7E
ENDCHAR
STARTCHAR odieresis
ENCODING 246
SWIDTH 1000 0
DWIDTH 10 0
BBX 8 12 1 0
BITMAP
66
00
00
7E
E7
E7
E7
E7
E7
E7
E7
7E
ENDCHAR
STARTCHAR divide
ENCODING 247
SWIDTH 1000 0
DWIDTH 9 0
BBX 7 7 1 1
BITMAP
10
00
00
FE
00
00
10
ENDCHAR
STARTCHAR oslash
ENCODING 248
SWIDTH 1000 0
DWIDTH 10 0
BBX 8 15 1 -3
BITMAP
01
01
02
7E
E7
EF
EF
FF
F7
F7
E7
7E
40
80
80
ENDCHAR
STARTCHAR ugrave
ENCODING 249
SWIDTH 1000 0
DWIDTH 10 0
BBX 8 12 1 0
BITMAP
38
1C
00
E7
E7
E7
E7
E7
E7
E7
E7
7F
ENDCHAR
STARTCHAR uacute
ENCODING 250
SWIDTH 1000 0
DWIDTH 10 0
BBX 8 12 1 0
BITMAP
1C
38
00
E7
E7
E7
E7
E7
E7
E7
E7
7F
ENDCHAR
STARTCHAR ucircumflex
ENCODING 251
SWIDTH 1000 0
DWIDTH 10 0
BBX 8 12 1 0
BITMAP
3C
66
00
E7
E7
E7
E7
E7
E7
E7
E7
7F
ENDCHAR
STARTCHAR udieresis
ENCODING 252
SWIDTH 1000 0
DWIDTH 10 0
BBX 8 12 1 0
BITMAP
66
00
00
E7
E7
E7
E7
E7
E7
E7
E7
7F
ENDCHAR
STARTCHAR afii10017
ENCODING 1040
SWIDTH 1000 0
DWIDTH 10 0
BBX 8 12 1 0
BITMAP
7E
E7
E7
E7
E7
FF
E7
E7
E7
E7
E7
E7
ENDCHAR
STARTCHAR afii10018
ENCODING 1041
SWIDTH 1000 0
DWIDTH 10 0
BBX 8 12 1 0
BITMAP
FE
E0
E0
E0
FE
E7
E7
E7
E7
E7
E7
FE
ENDCHAR
STARTCHAR afii10019
ENCODING 1042
SWIDTH 1000 0
DWIDTH 10 0
BBX 8 12 1 0
BITMAP
FE
E7
E7
E7
E6
FC
E6
E7
E7
E7
E7
FE
ENDCHAR
STARTCHAR afii10020
ENCODING 1043
SWIDTH 1000 0
DWIDTH 9 0
BBX 7 12 1 0
BITMAP
FE
E0
E0
E0
E0
E0
E0
E0
E0
E0
E0
E0
ENDCHAR
STARTCHAR afii10021
ENCODING 1044
SWIDTH 523 0
DWIDTH 11 0
BBX 10 14 0 -2
BITMAP
1F80
3380
7380
7380
7380
7380
7380
7380
7380
7380
7380
FFC0
C0C0
C0C0
ENDCHAR
STARTCHAR afii10022
ENCODING 1045
SWIDTH 1000 0
DWIDTH 9 0
BBX 7 12 1 0
BITMAP
FE
E0
E0
E0
E0
FC
E0
E0
E0
E0
E0
FE
ENDCHAR
STARTCHAR afii10024
ENCODING 1046
SWIDTH 714 0
DWIDTH 15 0
BBX 13 12 1 0
BITMAP
E738
E738
E738
E738
6730
3FE0
6730
E738
E738
E738
E738
E738
ENDCHAR
STARTCHAR afii10025
ENCODING 1047
SWIDTH 1000 0
DWIDTH 10 0
BBX 8 12 1 0
BITMAP
7E
C7
87
07
06
1C
06
07
07
87
C7
7E
ENDCHAR
STARTCHAR afii10026
ENCODING 1048
SWIDTH 1000 0
DWIDTH 11 0
BBX 9 12 1 0
BITMAP
8080
8180
8380
8780
8F80
9E80
BC80
F880
F080
E080
C080
8080
ENDCHAR
STARTCHAR afii10027
ENCODING 1049
SWIDTH 1000 0
DWIDTH 11 0
BBX 9 15 1 0
BITMAP
2200
1C00
0000
8080
8180
8380
8780
8F80
9E80
BC80
F880
F080
E080
C080
8080
ENDCHAR
STARTCHAR afii10028
ENCODING 1050
SWIDTH 1000 0
DWIDTH 11 0
BBX 9 12 1 0
BITMAP
E380
E700
EE00
FC00
F800
F000
F800
FC00
EE00
E700
E380
E380
ENDCHAR
STARTCHAR afii10029
ENCODING 1051
SWIDTH 476 0
DWIDTH 10 0
BBX 8 12 1 0
BITMAP
3F
67
E7
E7
E7
E7
E7
E7
E7
E7
E7
E7
ENDCHAR
STARTCHAR afii10030
ENCODING 1052
SWIDTH 1000 0
DWIDTH 15 0
BBX 13 12 1 0
BITMAP
8018
C038
E078
F0F8
F9F8
BFB8
9F38
8E38
8438
8038
8038
8038
ENDCHAR
STARTCHAR afii10031
ENCODING 1053
SWIDTH 1000 0
DWIDTH 10 0
BBX 8 12 1 0
BITMAP
E7
E7
E7
E7
E7
FF
E7
E7
E7
E7
E7
E7
ENDCHAR
STARTCHAR afii10032
ENCODING 1054
SWIDTH 1000 0
DWIDTH 10 0
BBX 8 12 1 0
BITMAP
7E
E7
E7
E7
E7
E7
E7
E7
E7
E7
E7
7E
ENDCHAR
STARTCHAR afii10033
ENCODING 1055
SWIDTH 1000 0
DWIDTH 10 0
BBX 8 12 1 0
BITMAP
FF
E7
E7
E7
E7
E7
E7
E7
E7
E7
E7
E7
ENDCHAR
STARTCHAR afii10034
ENCODING 1056
SWIDTH 1000 0
DWIDTH 10 0
BBX 8 12 1 0
BITMAP
FE
E7
E7
E7
E7
E7
FE
E0
E0
E0
E0
E0
ENDCHAR
STARTCHAR afii10035
ENCODING 1057
SWIDTH 1000 0
DWIDTH 10 0
BBX 8 12 1 0
BITMAP
7E
E3
E1
E0
E0
E0
E0
E0
E0
E1
E3
7E
ENDCHAR
STARTCHAR afii10036
ENCODING 1058
SWIDTH 1000 0
DWIDTH 9 0
BBX 9 12 0 0
BITMAP
FF80
1C00
1C00
1C00
1C00
1C00
1C00
1C00
1C00
1C00
1C00
1C00
ENDCHAR
STARTCHAR afii10037
ENCODING 1059
SWIDTH 1000 0
DWIDTH 10 0
BBX 8 12 1 0
BITMAP
E7
E7
E7
E7
E7
E7
7F
07
07
87
C7
7E
ENDCHAR
STARTCHAR afii10038
ENCODING 1060
SWIDTH 714 0
DWIDTH 15 0
BBX 13 12 1 0
BITMAP
0700
0700
7FF0
E738
E738
E738
E738
E738
7FF0
0700
0700
0700
ENDCHAR
STARTCHAR afii10039
ENCODING 1061
SWIDTH 1000 0
DWIDTH 10 0
BBX 8 12 1 0
BITMAP
E7
E7
E7
E7
66
3C
66
E7
E7
E7
E7
E7
ENDCHAR
STARTCHAR afii10040
ENCODING 1062
SWIDTH 1000 0
DWIDTH 10 0
BBX 9 14 1 -2
BITMAP
E700
E700
E700
E700
E700
E700
E700
E700
E700
E700
E700
FF80
0180
0180
ENDCHAR
STARTCHAR afii10041
ENCODING 1063
SWIDTH 1000 0
DWIDTH 10 0
BBX 8 12 1 0
BITMAP
E7
E7
E7
E7
E7
E7
7F
07
07
07
07
07
ENDCHAR
STARTCHAR afii10042
ENCODING 1064
SWIDTH 1000 0
DWIDTH 15 0
BBX 13 12 1 0
BITMAP
E738
E738
E738
E738
E738
E738
E738
E738
E738
E738
E738
FFF8
ENDCHAR
STARTCHAR afii10043
ENCODING 1065
SWIDTH 1000 0
DWIDTH 15 0
BBX 14 14 1 -2
BITMAP
E738
E738
E738
E738
E738
E738
E738
E738
E738
E738
E738
FFFC
000C
000C
ENDCHAR
STARTCHAR afii10044
ENCODING 1066
SWIDTH 523 0
DWIDTH 11 0
BBX 10 12 0 0
BITMAP
F800
3800
3800
3800
3800
3F80
39C0
39C0
39C0
39C0
39C0
3F80
ENDCHAR
STARTCHAR afii10045
ENCODING 1067
SWIDTH 666 0
DWIDTH 14 0
BBX 12 12 1 0
BITMAP
E070
E070
E070
E070
E070
FE70
E770
E770
E770
E770
E770
FE70
ENDCHAR
STARTCHAR afii10046
ENCODING 1068
SWIDTH 476 0
DWIDTH 10 0
BBX 8 12 1 0
BITMAP
E0
E0
E0
E0
E0
FE
E7
E7
E7
E7
E7
FE
ENDCHAR
STARTCHAR afii10047
ENCODING 1069
SWIDTH 1000 0
DWIDTH 10 0
BBX 8 12 1 0
BITMAP
7E
C7
87
07
07
3F
07
07
07
87
C7
7E
ENDCHAR
STARTCHAR afii10048
ENCODING 1070
SWIDTH 666 0
DWIDTH 14 0
BBX 12 12 1 0
BITMAP
E7E0
EE70
EE70
EE70
EE70
FE70
EE70
EE70
EE70
EE70
EE70
E7E0
ENDCHAR
STARTCHAR afii10049
ENCODING 1071
SWIDTH 1000 0
DWIDTH 10 0
BBX 8 12 1 0
BITMAP
7F
E7
E7
E7
E7
67
3F
67
E7
E7
E7
E7
ENDCHAR
STARTCHAR afii10065
ENCODING 1072
SWIDTH 1000 0
DWIDTH 10 0
BBX 8 9 1 0
BITMAP
7E
C7
87
07
7F
E7
E7
E7
7F
ENDCHAR
STARTCHAR afii10066
ENCODING 1073
SWIDTH 1000 0
DWIDTH 10 0
BBX 8 13 1 0
BITMAP
01
7E
E0
E0
FE
E7
E7
E7
E7
E7
E7
E7
7E
ENDCHAR
STARTCHAR afii10067
ENCODING 1074
SWIDTH 1000 0
DWIDTH 10 0
BBX 8 9 1 0
BITMAP
FE
E7
E7
FE
E7
E7
E7
E7
FE
ENDCHAR
STARTCHAR afii10068
ENCODING 1075
SWIDTH 428 0
DWIDTH 9 0
BBX 7 9 1 0
BITMAP
FE
E0
E0
E0
E0
E0
E0
E0
E0
ENDCHAR
STARTCHAR afii10069
ENCODING 1076
SWIDTH 1000 0
DWIDTH 10 0
BBX 10 11 0 -2
BITMAP
1F80
3380
7380
7380
7380
7380
7380
7380
FFC0
C0C0
C0C0
ENDCHAR
STARTCHAR afii10070
ENCODING 1077
SWIDTH 1000 0
DWIDTH 10 0
BBX 8 9 1 0
BITMAP
7E
E7
E7
E7
FF
E0
E1
E3
7E
ENDCHAR
STARTCHAR afii10072
ENCODING 1078
SWIDTH 714 0
DWIDTH 15 0
BBX 13 9 1 0
BITMAP
E738
E738
E738
6730
3FE0
6730
E738
E738
E738
ENDCHAR
STARTCHAR afii10073
ENCODING 1079
SWIDTH 1000 0
DWIDTH 10 0
BBX 8 9 1 0
BITMAP
7E
C7
87
07
1E
07
87
C7
7E
ENDCHAR
STARTCHAR afii10074
ENCODING 1080
SWIDTH 1000 0
DWIDTH 10 0
BBX 8 9 1 0
BITMAP
E7
E7
E7
E7
E7
E7
E7
E7
7F
ENDCHAR
STARTCHAR afii10075
ENCODING 1081
SWIDTH 1000 0
DWIDTH 10 0
BBX 8 12 1 0
BITMAP
66
3C
00
E7
E7
E7
E7
E7
E7
E7
E7
7F
ENDCHAR
STARTCHAR afii10076
ENCODING 1082
SWIDTH 476 0
DWIDTH 10 0
BBX 8 9 1 0
BITMAP
E3
E6
EC
F8
F0
F8
EC
E6
E3
ENDCHAR
STARTCHAR afii10077
ENCODING 1083
SWIDTH 1000 0
DWIDTH 10 0
BBX 8 9 1 0
BITMAP
3F
67
E7
E7
E7
E7
E7
E7
E7
ENDCHAR
STARTCHAR afii10078
ENCODING 1084
SWIDTH 619 0
DWIDTH 13 0
BBX 11 9 1 0
BITMAP
8060
C0E0
E1E0
F3E0
BEE0
9CE0
88E0
80E0
80E0
ENDCHAR
STARTCHAR afii10079
ENCODING 1085
SWIDTH 1000 0
DWIDTH 10 0
BBX 8 9 1 0
BITMAP
E7
E7
E7
E7
FF
E7
E7
E7
E7
ENDCHAR
STARTCHAR afii10080
ENCODING 1086
SWIDTH 1000 0
DWIDTH 10 0
BBX 8 9 1 0
BITMAP
7E
E7
E7
E7
E7
E7
E7
E7
7E
ENDCHAR
STARTCHAR afii10081
ENCODING 1087
SWIDTH 1000 0
DWIDTH 10 0
BBX 8 9 1 0
BITMAP
FF
E7
E7
E7
E7
E7
E7
E7
E7
ENDCHAR
STARTCHAR afii10082
ENCODING 1088
SWIDTH 1000 0
DWIDTH 10 0
BBX 8 12 1 -3
BITMAP
FE
E7
E7
E7
E7
E7
E7
E7
FE
E0
E0
E0
ENDCHAR
STARTCHAR afii10083
ENCODING 1089
SWIDTH 1000 0
DWIDTH 10 0
BBX 8 9 1 0
BITMAP
7E
E3
E1
E0
E0
E0
E1
E3
7E
ENDCHAR
STARTCHAR afii10084
ENCODING 1090
SWIDTH 428 0
DWIDTH 9 0
BBX 9 9 0 0
BITMAP
FF80
1C00
1C00
1C00
1C00
1C00
1C00
1C00
1C00
ENDCHAR
STARTCHAR afii10085
ENCODING 1091
SWIDTH 1000 0
DWIDTH 10 0
BBX 8 13 1 -4
BITMAP
E7
E7
E7
E7
E7
E7
E7
E7
7F
07
87
C7
7E
ENDCHAR
STARTCHAR afii10086
ENCODING 1092
SWIDTH 714 0
DWIDTH 15 0
BBX 13 14 1 -3
BITMAP
0700
0700
7FF0
E738
E738
E738
E738
E738
E738
E738
7FF0
0700
0700
0700
ENDCHAR
STARTCHAR afii10087
ENCODING 1093
SWIDTH 1000 0
DWIDTH 10 0
BBX 8 9 1 0
BITMAP
E7
E7
E7
66
3C
66
E7
E7
E7
ENDCHAR
STARTCHAR afii10088
ENCODING 1094
SWIDTH 1000 0
DWIDTH 10 0
BBX 9 11 1 -2
BITMAP
E700
E700
E700
E700
E700
E700
E700
E700
FF80
0180
0180
ENDCHAR
STARTCHAR afii10089
ENCODING 1095
SWIDTH 1000 0
DWIDTH 10 0
BBX 8 9 1 0
BITMAP
E7
E7
E7
E7
E7
7F
07
07
07
ENDCHAR
STARTCHAR afii10090
ENCODING 1096
SWIDTH 1000 0
DWIDTH 15 0
BBX 13 9 1 0
BITMAP
E738
E738
E738
E738
E738
E738
E738
E738
FFF8
ENDCHAR
STARTCHAR afii10091
ENCODING 1097
SWIDTH 714 0
DWIDTH 15 0
BBX 14 11 1 -2
BITMAP
E738
E738
E738
E738
E738
E738
E738
E738
FFFC
000C
000C
ENDCHAR
STARTCHAR afii10092
ENCODING 1098
SWIDTH 523 0
DWIDTH 11 0
BBX 10 9 0 0
BITMAP
F800
3800
3800
3F80
39C0
39C0
39C0
39C0
3F80
ENDCHAR
STARTCHAR afii10093
ENCODING 1099
SWIDTH 666 0
DWIDTH 14 0
BBX 12 9 1 0
BITMAP
E070
E070
E070
FE70
E770
E770
E770
E770
FE70
ENDCHAR
STARTCHAR afii10094
ENCODING 1100
SWIDTH 476 0
DWIDTH 10 0
BBX 8 9 1 0
BITMAP
E0
E0
E0
FE
E7
E7
E7
E7
FE
ENDCHAR
STARTCHAR afii10095
ENCODING 1101
SWIDTH 1000 0
DWIDTH 10 0
BBX 8 9 1 0
BITMAP
7E
C7
87
07
3F
07
87
C7
7E
ENDCHAR
STARTCHAR afii10096
ENCODING 1102
SWIDTH 666 0
DWIDTH 14 0
BBX 12 9 1 0
BITMAP
E7E0
EE70
EE70
EE70
FE70
EE70
EE70
EE70
E7E0
ENDCHAR
STARTCHAR afii10097
ENCODING 1103
SWIDTH 1000 0
DWIDTH 10 0
BBX 9 9 0 0
BITMAP
3F80
7380
7380
7380
3F80
1F80
3B80
7380
E380
ENDCHAR
STARTCHAR uni0450
ENCODING 1104
SWIDTH 1000 0
DWIDTH 10 0
BBX 8 12 1 0
BITMAP
38
1C
00
7E
E7
E7
E7
FF
E0
E1
E3
7E
ENDCHAR
STARTCHAR afii10071
ENCODING 1105
SWIDTH 1000 0
DWIDTH 10 0
BBX 8 12 1 0
BITMAP
66
00
00
7E
E7
E7
E7
FF
E0
E1
E3
7E
ENDCHAR
STARTCHAR afii57664
ENCODING 1488
SWIDTH 523 0
DWIDTH 11 0
BBX 9 12 1 0
BITMAP
E180
E180
E180
E180
7180
3B00
6E00
C700
C380
C380
C380
C380
ENDCHAR
STARTCHAR afii57665
ENCODING 1489
SWIDTH 523 0
DWIDTH 11 0
BBX 9 12 1 0
BITMAP
FE00
0700
0700
0700
0700
0700
0700
0700
0700
0700
0700
FF80
ENDCHAR
STARTCHAR afii57666
ENCODING 1490
SWIDTH 428 0
DWIDTH 9 0
BBX 7 12 1 0
BITMAP
78
1C
1C
1C
1C
1C
1C
1C
1C
3C
6C
C6
ENDCHAR
STARTCHAR afii57667
ENCODING 1491
SWIDTH 1000 0
DWIDTH 11 0
BBX 9 12 1 0
BITMAP
FF80
0700
0700
0700
0700
0700
0700
0700
0700
0700
0700
0700
ENDCHAR
STARTCHAR afii57668
ENCODING 1492
SWIDTH 1000 0
DWIDTH 11 0
BBX 8 12 1 0
BITMAP
FE
07
07
07
E7
E7
E7
E7
E7
E7
E7
E7
ENDCHAR
STARTCHAR afii57669
ENCODING 1493
SWIDTH 333 0
DWIDTH 7 0
BBX 5 12 1 0
BITMAP
F0
38
38
38
38
38
38
38
38
38
38
38
ENDCHAR
STARTCHAR afii57670
ENCODING 1494
SWIDTH 380 0
DWIDTH 8 0
BBX 6 12 1 0
BITMAP
FC
38
38
38
38
38
38
38
38
38
38
38
ENDCHAR
STARTCHAR afii57671
ENCODING 1495
SWIDTH 1000 0
DWIDTH 11 0
BBX 8 12 1 0
BITMAP
FE
E7
E7
E7
E7
E7
E7
E7
E7
E7
E7
E7
ENDCHAR
STARTCHAR afii57672
ENCODING 1496
SWIDTH 1000 0
DWIDTH 11 0
BBX 9 12 1 0
BITMAP
E700
E380
E380
E380
E380
E380
E380
E380
E380
E380
E380
7F00
ENDCHAR
STARTCHAR afii57673
ENCODING 1497
SWIDTH 285 0
DWIDTH 6 0
BBX 4 6 1 6
BITMAP
F0
F0
F0
30
30
60
ENDCHAR
STARTCHAR afii57674
ENCODING 1498
SWIDTH 476 0
DWIDTH 10 0
BBX 8 16 1 -4
BITMAP
FF
07
07
07
07
07
07
07
07
07
07
07
07
07
07
07
ENDCHAR
STARTCHAR afii57675
ENCODING 1499
SWIDTH 476 0
DWIDTH 10 0
BBX 8 12 1 0
BITMAP
FE
07
07
07
07
07
07
07
07
07
07
FE
ENDCHAR
STARTCHAR afii57676
ENCODING 1500
SWIDTH 1000 0
DWIDTH 11 0
BBX 8 15 1 0
BITMAP
E0
E0
E0
FF
07
07
07
07
0F
1E
3C
38
38
38
38
ENDCHAR
STARTCHAR afii57677
ENCODING 1501
SWIDTH 1000 0
DWIDTH 11 0
BBX 9 12 1 0
BITMAP
FF00
E380
E380
E380
E380
E380
E380
E380
E380
E380
E380
FF80
ENDCHAR
STARTCHAR afii57678
ENCODING 1502
SWIDTH 1000 0
DWIDTH 11 0
BBX 9 12 1 0
BITMAP
CF00
DB80
F380
E380
E380
E380
E380
E380
E380
E380
E380
E780
ENDCHAR
STARTCHAR afii57679
ENCODING 1503
SWIDTH 1000 0
DWIDTH 7 0
BBX 5 16 1 -4
BITMAP
F0
38
38
38
38
38
38
38
38
38
38
38
38
38
38
38
ENDCHAR
STARTCHAR afii57680
ENCODING 1504
SWIDTH 1000 0
DWIDTH 7 0
BBX 5 12 1 0
BITMAP
F0
38
38
38
38
38
38
38
38
38
38
F8
ENDCHAR
STARTCHAR afii57681
ENCODING 1505
SWIDTH 1000 0
DWIDTH 11 0
BBX 9 12 1 0
BITMAP
FF00
E380
E380
E380
E380
E380
E380
E380
E380
E380
E380
7F00
ENDCHAR
STARTCHAR afii57682
ENCODING 1506
SWIDTH 1000 0
DWIDTH 11 0
BBX 9 12 1 0
BITMAP
7380
7380
7380
7380
7380
7380
7380
7380
7380
7380
7380
FF00
ENDCHAR
STARTCHAR afii57683
ENCODING 1507
SWIDTH 1000 0
DWIDTH 11 0
BBX 9 16 1 -4
BITMAP
FF00
E380
E380
E380
E380
E380
7380
0380
0380
0380
0380
0380
0380
0380
0380
0380
ENDCHAR
STARTCHAR afii57684
ENCODING 1508
SWIDTH 1000 0
DWIDTH 11 0
BBX 9 12 1 0
BITMAP
FF00
E380
E380
E380
E380
E380
7380
0380
0380
0380
0380
FF00
ENDCHAR
STARTCHAR afii57685
ENCODING 1509
SWIDTH 1000 0
DWIDTH 11 0
BBX 9 16 1 -4
BITMAP
E380
E380
E380
E380
E380
E380
E380
E300
E600
EC00
F800
F000
E000
E000
E000
E000
ENDCHAR
STARTCHAR afii57686
ENCODING 1510
SWIDTH 1000 0
DWIDTH 11 0
BBX 9 12 1 0
BITMAP
E380
E380
E380
E380
E380
7380
3B00
1E00
0F00
0780
0380
FF00
ENDCHAR
STARTCHAR afii57687
ENCODING 1511
SWIDTH 1000 0
DWIDTH 11 0
BBX 9 16 1 -4
BITMAP
FF00
0380
E380
E380
E380
E380
E380
E380
E380
E380
E380
EF00
E000
E000
E000
E000
ENDCHAR
STARTCHAR afii57688
ENCODING 1512
SWIDTH 1000 0
DWIDTH 10 0
BBX 8 12 1 0
BITMAP
FE
07
07
07
07
07
07
07
07
07
07
07
ENDCHAR
STARTCHAR afii57689
ENCODING 1513
SWIDTH 1000 0
DWIDTH 15 0
BBX 13 12 1 0
BITMAP
E738
E738
E738
E738
E738
E738
E738
E738
E738
E738
E730
FFE0
ENDCHAR
STARTCHAR afii57690
ENCODING 1514
SWIDTH 571 0
DWIDTH 12 0
BBX 10 12 1 0
BITMAP
7F80
71C0
71C0
71C0
71C0
71C0
71C0
71C0
71C0
71C0
71C0
F1C0
ENDCHAR
STARTCHAR afii57716
ENCODING 1520
SWIDTH 523 0
DWIDTH 11 0
BBX 9 12 1 0
BITMAP
F700
3B80
3B80
3B80
3B80
3B80
3B80
3B80
3B80
3B80
3B80
3B80
ENDCHAR
STARTCHAR afii57717
ENCODING 1521
SWIDTH 1000 0
DWIDTH 11 0
BBX 9 12 1 0
BITMAP
F700
F380
F380
3380
3380
6380
0380
0380
0380
0380
0380
0380
ENDCHAR
STARTCHAR afii57718
ENCODING 1522
SWIDTH 523 0
DWIDTH 11 0
BBX 9 6 1 6
BITMAP
F780
F780
F780
3180
3180
6300
ENDCHAR
STARTCHAR uni05F3
ENCODING 1523
SWIDTH 285 0
DWIDTH 6 0
BBX 4 4 1 8
BITMAP
70
70
E0
E0
ENDCHAR
STARTCHAR uni05F4
ENCODING 1524
SWIDTH 476 0
DWIDTH 10 0
BBX 8 4 1 8
BITMAP
77
77
EE
EE
ENDCHAR
STARTCHAR endash
ENCODING 8211
SWIDTH 923 0
DWIDTH 11 0
BBX 9 1 1 4
BITMAP
FF8
ENDCHAR
STARTCHAR emdash
ENCODING 8212
SWIDTH 923 0
DWIDTH 18 0
BBX 16 1 1 4
BITMAP
FFFF
ENDCHAR
STARTCHAR quoteleft
ENCODING 8216
SWIDTH 1000 0
DWIDTH 5 0
BBX 3 5 1 7
BITMAP
60
80
E0
E0
E0
ENDCHAR
STARTCHAR quoteright
ENCODING 8217
SWIDTH 1000 0
DWIDTH 5 0
BBX 3 5 1 7
BITMAP
E0
E0
E0
20
C0
ENDCHAR
STARTCHAR quotesinglbase
ENCODING 8218
SWIDTH 1000 0
DWIDTH 5 0
BBX 3 5 1 -2
BITMAP
E0
E0
E0
20
C0
ENDCHAR
STARTCHAR quotereversed
ENCODING 8219
SWIDTH 1000 0
DWIDTH 5 0
BBX 3 5 1 7
BITMAP
E0
E0
E0
80
60
ENDCHAR
STARTCHAR quotedblleft
ENCODING 8220
SWIDTH 1000 0
DWIDTH 9 0
BBX 7 5 1 7
BITMAP
66
88
EE
EE
EE
ENDCHAR
STARTCHAR quotedblright
ENCODING 8221
SWIDTH 428 0
DWIDTH 9 0
BBX 7 5 1 7
BITMAP
EE
EE
EE
22
CC
ENDCHAR
STARTCHAR quotedblbase
ENCODING 8222
SWIDTH 1000 0
DWIDTH 9 0
BBX 7 5 1 -2
BITMAP
EE
EE
EE
22
CC
ENDCHAR
STARTCHAR uni201F
ENCODING 8223
SWIDTH 1000 0
DWIDTH 9 0
BBX 7 5 1 7
BITMAP
EE
EE
EE
88
66
ENDCHAR
STARTCHAR ellipsis
ENCODING 8230
DWIDTH 15 0
BBX 13 3 1 0
BITMAP
E738
E738
E738
ENDCHAR
STARTCHAR Euro
ENCODING 8364
SWIDTH 1000 0
DWIDTH 10 0
BBX 9 12 0 0
BITMAP
3F00
7180
7080
7000
FE00
7000
FC00
7000
7000
7080
7180
3F00
ENDCHAR
ENDFONT
